<svg width="267" height="53" viewBox="0 0 267 53" fill="none" xmlns="http://www.w3.org/2000/svg">
<path d="M92.3388 30.8969C92.3388 33.2193 91.9033 35.3676 91.0324 37.3416C90.1615 39.3157 88.9712 41.0285 87.4617 42.48C85.9811 43.9315 84.2393 45.0492 82.2362 45.833C80.2621 46.6168 78.1574 47.0087 75.9221 47.0087C73.7158 47.0087 71.6256 46.6313 69.6515 45.8766C67.6774 45.0927 65.9501 44.0041 64.4696 42.6106C62.989 41.1881 61.8133 39.5044 60.9424 37.5593C60.1005 35.5853 59.6796 33.4225 59.6796 31.0711C59.6796 28.5744 60.1295 26.3391 61.0295 24.365C61.9294 22.3619 63.1342 20.6782 64.6438 19.3137C66.1824 17.9203 67.9678 16.8607 69.9999 16.1349C72.061 15.3801 74.2238 15.0027 76.4882 15.0027C78.9558 15.0027 81.1621 15.4382 83.1071 16.3091C85.0812 17.18 86.7504 18.3557 88.1148 19.8363C89.4793 21.2878 90.5244 22.9716 91.2501 24.8876C91.9759 26.8036 92.3388 28.8067 92.3388 30.8969ZM86.9391 30.9404C86.9391 29.1696 86.7069 27.3842 86.2424 25.5843C85.8069 23.7844 85.1247 22.1587 84.1957 20.7072C83.2958 19.2266 82.1636 18.0364 80.7992 17.1365C79.4348 16.2075 77.8236 15.743 75.9656 15.743C74.0787 15.743 72.4384 16.2075 71.045 17.1365C69.6805 18.0364 68.5484 19.2121 67.6484 20.6637C66.7775 22.1152 66.1243 23.7699 65.6889 25.6279C65.2824 27.4568 65.0792 29.3147 65.0792 31.2017C65.0792 33.1758 65.3115 35.0772 65.776 36.9062C66.2404 38.7351 66.9227 40.3463 67.8226 41.7397C68.7516 43.1332 69.8983 44.2509 71.2627 45.0927C72.6562 45.9346 74.2673 46.3556 76.0963 46.3556C77.9252 46.3556 79.5073 45.8911 80.8427 44.9621C82.2072 44.0331 83.3393 42.8429 84.2393 41.3914C85.1392 39.9108 85.8069 38.2561 86.2424 36.4272C86.7069 34.5982 86.9391 32.7693 86.9391 30.9404ZM109.566 28.0664C109.566 28.7051 109.377 29.2421 109 29.6776C108.623 30.084 108.187 30.2872 107.694 30.2872C107.229 30.2872 106.852 30.2147 106.562 30.0695C106.3 29.8953 106.068 29.7066 105.865 29.5034C105.662 29.3002 105.444 29.126 105.212 28.9809C104.979 28.8067 104.66 28.7196 104.254 28.7196C103.905 28.7196 103.557 28.8502 103.209 29.1115C102.889 29.3437 102.584 29.6486 102.294 30.026C102.004 30.4034 101.742 30.8388 101.51 31.3323C101.278 31.7968 101.075 32.2468 100.901 32.6822V45.2234C100.988 45.4846 101.176 45.6879 101.467 45.833C101.757 45.9782 102.076 46.0798 102.425 46.1378C102.802 46.1959 103.179 46.2394 103.557 46.2685C103.963 46.2685 104.312 46.2975 104.602 46.3556V46.791H94.8477V46.3556C95.5154 46.2975 96.0815 46.1669 96.546 45.9636C97.0395 45.7604 97.2863 45.4266 97.2863 44.9621V30.2437C97.2863 30.0114 97.2573 29.8373 97.1992 29.7211C97.1702 29.605 97.0541 29.4744 96.8508 29.3292C96.5896 29.1841 96.2848 29.0099 95.9364 28.8067C95.588 28.5744 95.2397 28.3857 94.8913 28.2406V27.9793L100.596 25.7585H100.857L100.77 31.8113H100.857C101.002 31.463 101.234 30.9549 101.554 30.2872C101.873 29.6195 102.28 28.9518 102.773 28.2841C103.267 27.5874 103.862 26.9923 104.558 26.4988C105.255 26.0052 106.053 25.7585 106.953 25.7585C107.679 25.7585 108.289 25.9762 108.782 26.4117C109.305 26.8471 109.566 27.3987 109.566 28.0664ZM116.857 18.8783C116.857 19.546 116.624 20.1121 116.16 20.5766C115.724 21.012 115.173 21.2297 114.505 21.2297C113.867 21.2297 113.315 20.9975 112.85 20.533C112.386 20.0685 112.154 19.517 112.154 18.8783C112.154 18.2106 112.371 17.659 112.807 17.2236C113.271 16.7881 113.837 16.5704 114.505 16.5704C115.173 16.5704 115.724 16.7881 116.16 17.2236C116.624 17.659 116.857 18.2106 116.857 18.8783ZM119.295 46.791H109.933V46.3556C110.281 46.3265 110.63 46.2975 110.978 46.2685C111.326 46.2104 111.631 46.1378 111.892 46.0507C112.183 45.9346 112.415 45.7895 112.589 45.6153C112.792 45.4411 112.894 45.2234 112.894 44.9621V30.026C112.894 29.7937 112.865 29.5905 112.807 29.4163C112.778 29.2421 112.662 29.0825 112.459 28.9373C112.197 28.7631 111.878 28.589 111.501 28.4148C111.152 28.2406 110.775 28.0809 110.368 27.9358V27.6745L116.247 25.7585H116.508V45.2234C116.566 45.5137 116.682 45.7314 116.857 45.8766C117.06 45.9927 117.292 46.0798 117.553 46.1378C117.815 46.1959 118.09 46.2394 118.381 46.2685C118.7 46.2685 119.005 46.2975 119.295 46.3556V46.791ZM141.63 36.1223C141.63 37.6029 141.354 39.0109 140.803 40.3463C140.251 41.6526 139.511 42.7993 138.582 43.7864C137.653 44.7734 136.564 45.5427 135.316 46.0943C134.097 46.6459 132.805 46.9217 131.44 46.9217C130.308 46.9217 129.132 46.7184 127.913 46.312C126.694 45.9056 125.562 45.2669 124.517 44.396C123.501 43.4961 122.659 42.3639 121.991 40.9995C121.352 39.606 121.033 37.9803 121.033 36.1223C121.033 34.7869 121.28 33.4951 121.773 32.2468C122.296 30.9985 123.007 29.8953 123.907 28.9373C124.836 27.9793 125.939 27.21 127.216 26.6294C128.523 26.0488 129.96 25.7585 131.527 25.7585C132.689 25.7585 133.864 25.9762 135.055 26.4117C136.245 26.8471 137.319 27.5003 138.277 28.3712C139.264 29.2131 140.062 30.2872 140.672 31.5936C141.311 32.8709 141.63 34.3805 141.63 36.1223ZM137.58 36.0788C137.58 35.0918 137.464 34.0322 137.232 32.9C137.029 31.7678 136.68 30.7227 136.187 29.7647C135.693 28.8067 135.04 28.0229 134.227 27.4132C133.414 26.7746 132.413 26.4552 131.223 26.4552C130.265 26.4552 129.408 26.7455 128.653 27.3261C127.899 27.9067 127.245 28.676 126.694 29.634C126.171 30.563 125.765 31.6226 125.475 32.8129C125.213 33.9741 125.083 35.1643 125.083 36.3836C125.083 37.719 125.199 38.9818 125.431 40.1721C125.663 41.3623 126.041 42.4219 126.563 43.3509C127.086 44.2509 127.753 44.9766 128.566 45.5282C129.379 46.0507 130.352 46.312 131.484 46.312C132.616 46.312 133.56 45.9782 134.314 45.3105C135.098 44.6137 135.722 43.7573 136.187 42.7413C136.68 41.6962 137.029 40.5785 137.232 39.3883C137.464 38.198 137.58 37.0949 137.58 36.0788ZM164.742 46.791H155.858V46.312C156.642 46.254 157.266 46.1669 157.731 46.0507C158.195 45.9056 158.427 45.6008 158.427 45.1363V34.1628C158.427 32.479 158.108 31.1291 157.469 30.113C156.831 29.068 155.757 28.5454 154.247 28.5454C153.289 28.5454 152.491 28.7486 151.852 29.155C151.213 29.5615 150.502 30.1566 149.718 30.9404V45.2234C149.776 45.5137 149.878 45.7314 150.023 45.8766C150.168 45.9927 150.342 46.0798 150.546 46.1378C150.749 46.1959 150.981 46.2394 151.242 46.2685C151.504 46.2685 151.779 46.2975 152.07 46.3556V46.791H143.665V46.3556C144.333 46.2975 144.899 46.1669 145.364 45.9636C145.857 45.7604 146.104 45.4266 146.104 44.9621V29.9824C146.104 29.7502 146.075 29.576 146.017 29.4599C145.988 29.3437 145.872 29.2131 145.669 29.068C145.407 28.9228 145.102 28.7631 144.754 28.589C144.406 28.3857 144.057 28.2116 143.709 28.0664V27.8051L149.413 25.7585H149.675V30.4614L149.762 30.505C150.081 30.0114 150.473 29.4889 150.938 28.9373C151.431 28.3567 151.983 27.8342 152.592 27.3697C153.202 26.9052 153.87 26.5278 154.595 26.2375C155.321 25.9182 156.076 25.7585 156.86 25.7585C158.544 25.7585 159.835 26.3826 160.735 27.631C161.635 28.8793 162.085 30.4904 162.085 32.4645V45.2669C162.085 45.4701 162.172 45.6443 162.346 45.7895C162.55 45.9346 162.782 46.0507 163.043 46.1378C163.304 46.1959 163.58 46.254 163.871 46.312C164.19 46.341 164.48 46.3701 164.742 46.3991V46.791ZM198.596 38.2125C198.596 39.606 198.306 40.8543 197.725 41.9575C197.173 43.0606 196.39 44.0041 195.373 44.7879C194.386 45.5717 193.196 46.1523 191.803 46.5297C190.409 46.9071 188.885 47.0958 187.23 47.0958C185.808 47.0958 184.589 47.0087 183.573 46.8346C182.557 46.6604 181.715 46.4572 181.047 46.2249C180.379 45.9636 179.871 45.7314 179.523 45.5282C179.204 45.325 179 45.2234 178.913 45.2234C178.826 45.2234 178.637 45.3976 178.347 45.7459C178.057 46.0943 177.796 46.4281 177.563 46.7475H177.171L177.041 38.0819H177.476C177.737 38.8657 178.071 39.635 178.478 40.3898C178.884 41.1156 179.32 41.8123 179.784 42.48C180.278 43.1187 180.786 43.6848 181.308 44.1783C181.86 44.6718 182.382 45.0492 182.876 45.3105C183.369 45.5717 184.023 45.833 184.835 46.0943C185.648 46.3556 186.432 46.4862 187.187 46.4862C189.335 46.4862 191.077 45.9056 192.412 44.7444C193.748 43.5541 194.415 41.9575 194.415 39.9544C194.415 39.1415 194.285 38.4303 194.024 37.8206C193.762 37.211 193.399 36.6884 192.935 36.253C192.499 35.7885 191.977 35.3966 191.367 35.0772C190.758 34.7579 190.104 34.4676 189.408 34.2063C188.711 33.9451 188.101 33.7273 187.579 33.5532C187.056 33.379 186.563 33.2193 186.098 33.0742C185.663 32.9 185.198 32.7403 184.705 32.5951C184.24 32.421 183.674 32.2032 183.006 31.942C182.252 31.6517 181.526 31.2598 180.829 30.7662C180.132 30.2437 179.523 29.6486 179 28.9809C178.478 28.2841 178.057 27.5293 177.737 26.7165C177.418 25.8746 177.258 24.9892 177.258 24.0602C177.258 22.4926 177.534 21.1427 178.086 20.0105C178.666 18.8783 179.436 17.9348 180.394 17.18C181.352 16.4252 182.455 15.8736 183.703 15.5253C184.981 15.1479 186.316 14.9592 187.709 14.9592C189.016 14.9592 190.133 15.0753 191.062 15.3075C191.991 15.5108 192.746 15.743 193.327 16.0043C193.936 16.2655 194.386 16.5123 194.677 16.7445C194.996 16.9478 195.17 17.0494 195.199 17.0494C195.286 17.0494 195.461 16.8752 195.722 16.5268C196.012 16.1785 196.273 15.8301 196.506 15.4817H196.985V23.5377H196.506C196.157 22.5797 195.707 21.6362 195.156 20.7072C194.604 19.7492 193.965 18.9073 193.24 18.1816C192.514 17.4268 191.687 16.8171 190.758 16.3526C189.829 15.8882 188.798 15.6559 187.666 15.6559C186.766 15.6559 185.91 15.7865 185.097 16.0478C184.313 16.3091 183.616 16.701 183.006 17.2236C182.426 17.7461 181.961 18.3993 181.613 19.1831C181.294 19.9379 181.134 20.8088 181.134 21.7958C181.134 23.3345 181.599 24.5682 182.527 25.4972C183.456 26.4262 184.661 27.1665 186.142 27.718C186.722 27.9503 187.259 28.1535 187.753 28.3277C188.276 28.5019 188.784 28.676 189.277 28.8502C189.771 28.9954 190.264 29.155 190.758 29.3292C191.28 29.5034 191.817 29.6921 192.369 29.8953C194.343 30.6211 195.867 31.6807 196.941 33.0742C198.044 34.4386 198.596 36.1514 198.596 38.2125ZM215.947 26.1939L214.597 28.8502H207.979V40.3027C207.979 41.7833 208.298 42.8574 208.937 43.5251C209.575 44.1928 210.403 44.5266 211.419 44.5266C212.261 44.5266 212.957 44.396 213.509 44.1347C214.06 43.8444 214.539 43.409 214.946 42.8284L215.207 42.959C215.033 43.3945 214.786 43.8589 214.467 44.3525C214.177 44.8169 213.77 45.2524 213.248 45.6588C212.754 46.0362 212.159 46.341 211.462 46.5733C210.794 46.7765 209.996 46.8781 209.067 46.8781C208.458 46.8781 207.862 46.791 207.282 46.6168C206.73 46.4136 206.237 46.1378 205.801 45.7895C205.366 45.4121 205.003 45.0056 204.713 44.5702C204.451 44.1057 204.321 43.6412 204.321 43.1767C204.321 40.4479 204.335 37.8642 204.364 35.4256C204.393 32.958 204.408 30.7662 204.408 28.8502H201.229V28.3712L207.543 22.4055H207.891V26.1939H215.947ZM235.03 42.5235C235.001 43.0751 234.87 43.6122 234.638 44.1347C234.406 44.6573 234.101 45.1363 233.724 45.5717C233.346 45.9782 232.896 46.2975 232.374 46.5297C231.88 46.733 231.329 46.8346 230.719 46.8346C229.732 46.8346 228.846 46.5443 228.063 45.9636C227.308 45.383 226.93 44.367 226.93 42.9155L226.843 42.8719C226.611 43.2493 226.292 43.6702 225.885 44.1347C225.508 44.5992 225.043 45.0347 224.492 45.4411C223.969 45.8475 223.374 46.1814 222.706 46.4427C222.068 46.6749 221.357 46.791 220.573 46.791C220.108 46.791 219.629 46.733 219.136 46.6168C218.671 46.4717 218.236 46.2394 217.829 45.9201C217.452 45.5717 217.133 45.1363 216.871 44.6137C216.639 44.0912 216.523 43.4525 216.523 42.6977C216.523 41.8849 216.842 41.1011 217.481 40.3463C218.149 39.5915 218.962 38.9093 219.92 38.2996C220.878 37.69 221.719 37.1674 222.445 36.732C223.2 36.2965 223.853 35.9336 224.405 35.6433C224.956 35.324 225.435 35.0627 225.842 34.8595C226.277 34.6273 226.64 34.4241 226.93 34.2499V29.7647C226.93 29.7066 226.872 29.576 226.756 29.3728C226.669 29.1405 226.495 28.9083 226.234 28.676C226.001 28.4438 225.668 28.2406 225.232 28.0664C224.797 27.8632 224.231 27.7616 223.534 27.7616C223.069 27.7616 222.605 27.8487 222.14 28.0229C221.705 28.168 221.313 28.3712 220.965 28.6325C220.616 28.8647 220.34 29.1115 220.137 29.3728C219.934 29.605 219.832 29.8082 219.832 29.9824V31.942C219.832 32.3484 219.615 32.7113 219.179 33.0306C218.773 33.3499 218.323 33.5096 217.829 33.5096C217.365 33.5096 216.958 33.3499 216.61 33.0306C216.291 32.6822 216.131 32.2903 216.131 31.8549C216.131 31.5065 216.218 31.1872 216.392 30.8969C216.567 30.6066 216.784 30.3453 217.046 30.113C217.307 29.8808 217.583 29.6776 217.873 29.5034C218.192 29.3292 218.468 29.1696 218.7 29.0244C219.455 28.589 220.224 28.168 221.008 27.7616C221.792 27.3552 222.532 27.0068 223.229 26.7165C223.955 26.4262 224.608 26.1939 225.189 26.0198C225.798 25.8456 226.292 25.7585 226.669 25.7585C227.424 25.7585 228.135 25.9617 228.803 26.3681C229.471 26.7455 229.95 27.2245 230.24 27.8051C230.356 28.0083 230.429 28.3712 230.458 28.8938C230.487 29.3873 230.501 29.8808 230.501 30.3743C230.501 31.4194 230.487 32.3629 230.458 33.2048C230.458 34.0467 230.458 34.8595 230.458 35.6433C230.458 36.4272 230.443 37.24 230.414 38.0819C230.414 38.8947 230.414 39.7947 230.414 40.7817C230.414 42.0881 230.632 42.959 231.067 43.3945C231.532 43.8009 232.054 44.0041 232.635 44.0041C233.303 44.0041 233.796 43.8735 234.115 43.6122C234.435 43.3219 234.652 42.959 234.769 42.5235H235.03ZM226.93 41.6526V34.9466C226.408 35.324 225.755 35.7304 224.971 36.1659C224.187 36.5723 223.418 37.0223 222.663 37.5158C221.937 38.0093 221.298 38.5609 220.747 39.1705C220.224 39.7511 219.963 40.4188 219.963 41.1736C219.963 41.9284 220.224 42.6106 220.747 43.2203C221.269 43.8299 221.952 44.1347 222.794 44.1347C223.548 44.1347 224.216 44.0476 224.797 43.8735C225.377 43.6993 225.914 43.3654 226.408 42.8719C226.756 42.5526 226.93 42.1462 226.93 41.6526ZM250.281 28.0664C250.281 28.7051 250.093 29.2421 249.715 29.6776C249.338 30.084 248.902 30.2872 248.409 30.2872C247.944 30.2872 247.567 30.2147 247.277 30.0695C247.015 29.8953 246.783 29.7066 246.58 29.5034C246.377 29.3002 246.159 29.126 245.927 28.9809C245.695 28.8067 245.375 28.7196 244.969 28.7196C244.62 28.7196 244.272 28.8502 243.924 29.1115C243.604 29.3437 243.3 29.6486 243.009 30.026C242.719 30.4034 242.458 30.8388 242.225 31.3323C241.993 31.7968 241.79 32.2468 241.616 32.6822V45.2234C241.703 45.4846 241.892 45.6879 242.182 45.833C242.472 45.9782 242.792 46.0798 243.14 46.1378C243.517 46.1959 243.895 46.2394 244.272 46.2685C244.679 46.2685 245.027 46.2975 245.317 46.3556V46.791H235.563V46.3556C236.231 46.2975 236.797 46.1669 237.261 45.9636C237.755 45.7604 238.002 45.4266 238.002 44.9621V30.2437C238.002 30.0114 237.973 29.8373 237.914 29.7211C237.885 29.605 237.769 29.4744 237.566 29.3292C237.305 29.1841 237 29.0099 236.652 28.8067C236.303 28.5744 235.955 28.3857 235.607 28.2406V27.9793L241.311 25.7585H241.572L241.485 31.8113H241.572C241.717 31.463 241.95 30.9549 242.269 30.2872C242.588 29.6195 242.995 28.9518 243.488 28.2841C243.982 27.5874 244.577 26.9923 245.274 26.4988C245.97 26.0052 246.769 25.7585 247.669 25.7585C248.394 25.7585 249.004 25.9762 249.498 26.4117C250.02 26.8471 250.281 27.3987 250.281 28.0664ZM265.933 40.4334C265.933 41.5655 265.7 42.5526 265.236 43.3945C264.8 44.2073 264.205 44.875 263.451 45.3976C262.696 45.9201 261.825 46.2975 260.838 46.5297C259.88 46.762 258.864 46.8781 257.79 46.8781C256.512 46.8781 255.308 46.762 254.175 46.5297C253.043 46.2975 251.998 45.9636 251.04 45.5282V39.7802H251.388C251.621 40.4769 251.911 41.2172 252.259 42.001C252.608 42.7558 253.029 43.467 253.522 44.1347C254.016 44.7734 254.611 45.3105 255.308 45.7459C256.004 46.1523 256.832 46.3556 257.79 46.3556C259.183 46.3556 260.286 45.9636 261.099 45.1798C261.941 44.367 262.362 43.1332 262.362 41.4785C262.362 40.5785 262.072 39.8382 261.491 39.2576C260.939 38.648 260.17 38.2416 259.183 38.0383C258.399 37.8932 257.644 37.7335 256.919 37.5593C256.193 37.3852 255.54 37.1965 254.959 36.9933C253.856 36.6159 252.956 35.9627 252.259 35.0337C251.592 34.1047 251.258 32.9871 251.258 31.6807C251.258 30.7807 251.446 29.9679 251.824 29.2421C252.201 28.5164 252.709 27.8922 253.348 27.3697C253.987 26.8471 254.727 26.4552 255.569 26.1939C256.411 25.9036 257.311 25.7585 258.269 25.7585C259.488 25.7585 260.562 25.8746 261.491 26.1069C262.42 26.3101 263.305 26.5713 264.147 26.8907L264.67 32.2903L264.321 32.3774C263.915 31.5065 263.509 30.7082 263.102 29.9824C262.696 29.2276 262.246 28.589 261.752 28.0664C261.259 27.5148 260.693 27.0939 260.054 26.8036C259.444 26.5133 258.733 26.3681 257.92 26.3681C257.427 26.3681 256.933 26.4552 256.44 26.6294C255.975 26.8036 255.554 27.0649 255.177 27.4132C254.829 27.7326 254.538 28.1535 254.306 28.676C254.074 29.1696 253.958 29.7502 253.958 30.4179C253.958 31.492 254.262 32.2613 254.872 32.7258C255.482 33.1903 256.251 33.5386 257.18 33.7709C257.819 33.916 258.515 34.0757 259.27 34.2499C260.025 34.395 260.678 34.5402 261.23 34.6853C262.536 35.0047 263.639 35.6724 264.539 36.6884C265.468 37.7045 265.933 38.9528 265.933 40.4334Z" fill="#F7F8F8"/>
<path fill-rule="evenodd" clip-rule="evenodd" d="M7.36057 0.604213C5.78199 2.64285 3.48945 15.8675 2.58619 17.0841C1.75666 17.0104 1.37177 17.4675 1.37177 17.851C1.37177 18.252 1.14017 18.8479 0.822439 19.2645C0.220812 20.0531 0.143026 20.4552 0.519208 20.8314C1.08634 21.3986 1.36803 23.9934 0.92088 24.5324C0.599631 24.9193 1.26256 26.0868 1.89759 26.2529C2.41396 26.3878 3.33178 26.2063 3.73389 25.8897C3.93011 25.735 4.00856 25.7769 4.00856 26.0367C4.00856 26.2366 4.15688 26.457 4.33816 26.5265C4.51944 26.5961 4.66819 26.766 4.66863 26.9042C4.66907 27.0424 4.91429 27.6376 5.21357 28.2274C5.51263 28.8169 5.70379 29.3863 5.63809 29.4924C5.57239 29.5985 5.67347 29.7447 5.86244 29.8172C6.05119 29.8897 6.20588 30.1242 6.20588 30.3382C6.20588 30.552 6.36079 30.8556 6.54998 31.0128C6.73917 31.1699 7.03757 31.5757 7.21291 31.9148C7.38826 32.2538 7.80202 32.6733 8.13227 32.8466C8.46253 33.0202 9.11602 33.5162 9.58449 33.949C10.0527 34.3819 10.5482 34.7361 10.6851 34.7361C10.8222 34.7361 11.0501 34.9214 11.1914 35.1479C11.3329 35.3744 11.7264 35.6293 12.0661 35.7146C12.4056 35.7998 12.7339 35.9359 12.7957 36.0169C13.1182 36.441 14.2918 36.8809 14.8277 36.7785C15.2536 36.697 15.4689 36.7671 15.5654 37.0183C15.6401 37.2134 15.8277 37.3729 15.9822 37.3729C16.1367 37.3729 16.4296 37.6269 16.6331 37.9376C16.8365 38.2481 17.3786 38.8893 17.8376 39.3621C18.2967 39.8352 18.8214 40.53 19.0035 40.9062C19.3599 41.6421 20.815 43.5419 21.9717 44.7816C22.4373 45.2806 22.6858 45.7687 22.6858 46.1842V46.8214H24.5505C26.3933 46.8214 28.3988 46.4542 28.3988 46.1167C28.3988 46.0209 28.6212 45.9385 28.8932 45.9337C29.7175 45.9192 31.7076 44.7071 32.2727 43.8757C32.7742 43.1378 32.8084 42.8829 32.8777 39.3887C32.937 36.3878 33.0275 35.5107 33.354 34.7706C33.6052 34.2011 33.9016 33.8572 34.1411 33.8572C34.3525 33.8572 34.5865 33.7583 34.6612 33.6375C34.7359 33.5166 34.9888 33.4177 35.2235 33.4177C35.4582 33.4177 35.65 33.3188 35.65 33.198C35.65 33.0771 35.7906 32.9783 35.9627 32.9783C36.1347 32.9783 36.5694 32.7311 36.9284 32.4289C37.2875 32.1268 37.7333 31.8796 37.919 31.8796C38.1049 31.8796 38.4824 31.5584 38.7581 31.1655C39.3903 30.265 39.7548 29.9769 40.6478 29.6724C41.2251 29.4755 41.4241 29.4922 41.6916 29.7598C41.8735 29.9415 42.0223 30.1602 42.0223 30.2457C42.0223 30.4149 43.0765 31.4401 43.2506 31.4401C43.3094 31.4401 43.7693 31.8357 44.2723 32.3191C44.7755 32.8025 45.2525 33.198 45.3327 33.198C45.4129 33.198 45.8131 33.4922 46.2222 33.8519C47.0706 34.5975 47.5281 34.557 48.3057 33.6673C49.3866 32.4307 49.6125 31.7647 49.3204 30.6733C48.9662 29.3494 48.984 28.8163 49.3875 28.6614C49.6547 28.559 49.6916 28.3076 49.5723 27.4049C49.4903 26.7842 49.2875 25.9508 49.1216 25.5526C48.9557 25.1544 48.8766 24.7372 48.9458 24.6251C49.015 24.5133 48.9192 24.127 48.7331 23.7668C48.5468 23.4067 48.3945 22.8659 48.3945 22.5649C48.3945 22.2639 48.2956 21.9565 48.1748 21.8818C48.0539 21.807 47.955 21.5128 47.955 21.2278C47.955 20.9431 47.881 20.677 47.7902 20.6365C47.6995 20.5963 47.4529 20.2173 47.2422 19.7943C46.8153 18.9371 46.3721 18.203 46.1811 18.0364C46.0146 17.8912 45.6773 17.1078 45.6566 16.8185C45.6386 16.5673 45.2574 16.069 44.4942 15.2988C44.2222 15.0244 43.9998 14.7187 43.9998 14.6194C43.9998 14.5201 43.5641 13.9877 43.0315 13.4361C42.4989 12.8846 41.7819 12.1138 41.4384 11.7231C41.0038 11.2289 40.5797 10.9905 40.0447 10.9393C39.1345 10.8523 38.2883 10.433 37.8897 9.87141C37.732 9.64904 37.4164 9.46688 37.1886 9.46688C36.9609 9.46688 36.7135 9.368 36.6388 9.24715C36.5641 9.1263 36.1677 9.02742 35.7581 9.02742C35.1717 9.02742 34.8939 9.18365 34.4527 9.7622C34.1444 10.1665 33.8922 10.5691 33.8922 10.657C33.8922 10.7448 33.7416 10.967 33.5579 11.1509C33.1631 11.5458 33.2332 13.2226 33.6665 13.7446C33.8192 13.9286 33.8935 14.2727 33.8315 14.5093C33.7695 14.7462 33.8537 15.1173 34.0183 15.3346C34.1829 15.5517 34.3209 15.9953 34.3246 16.3205C34.3285 16.6457 34.4305 16.9729 34.5514 17.0476C34.6722 17.1223 34.7711 17.4214 34.7711 17.7123C34.7711 18.0033 34.9361 18.6154 35.1378 19.0727C36.1218 21.3043 36.3617 21.7719 36.5235 21.7719C36.6199 21.7719 36.8629 22.118 37.0636 22.5409C37.2642 22.9639 37.5061 23.31 37.601 23.31C37.6959 23.31 37.8752 23.6409 37.9994 24.0455C38.193 24.6763 38.1657 24.818 37.808 25.0415C37.5786 25.1848 37.443 25.3865 37.5068 25.4895C37.5705 25.5928 37.4767 25.7985 37.298 25.9468C37.1194 26.0951 37.0275 26.3041 37.0937 26.4111C37.1598 26.5183 36.8869 26.6084 36.487 26.6113C35.2468 26.6205 33.8537 27.0387 33.1826 27.6034C32.7786 27.9433 32.2657 28.1441 31.8007 28.1441C31.3942 28.1441 31.0005 28.243 30.9258 28.3639C30.8511 28.4847 30.5487 28.5836 30.2536 28.5836C29.9585 28.5836 29.7172 28.6805 29.7172 28.7991C29.7172 28.9176 29.4692 29.0769 29.1659 29.1531C28.8627 29.2292 28.4459 29.577 28.2398 29.9264C27.8163 30.6429 27.6003 30.6908 26.7596 30.2547C26.1246 29.9253 26.1519 29.8831 27.4101 29.2467C28.1952 28.8495 28.3439 28.19 27.8649 27.2303C27.6753 26.8497 27.5199 26.3263 27.5199 26.0668C27.5199 25.8075 27.4125 25.4878 27.2811 25.3564C27.109 25.1843 27.109 25.0762 27.2811 24.9699C27.5977 24.7741 27.5887 23.9692 27.2699 23.9692C27.1323 23.9692 26.5907 23.5737 26.0662 23.0903C25.5417 22.6069 25.0117 22.2114 24.888 22.2114C24.7645 22.2114 24.6634 21.9866 24.6634 21.7119C24.6634 20.9657 23.4316 20.3715 22.2116 20.5295C20.4103 20.7624 19.6054 20.9417 19.4847 21.1369C19.4182 21.2445 19.1956 21.3324 18.9901 21.3324C18.3786 21.3324 17.4122 22.3821 17.4122 23.0463C17.4122 23.4131 17.236 23.7537 16.9561 23.9286C16.5893 24.1577 16.5515 24.2757 16.7636 24.5311C16.9319 24.7341 16.9888 25.3052 16.9211 26.112C16.8471 26.9969 16.9211 27.6053 17.1688 28.1441C17.623 29.1329 18.6618 30.2918 19.2558 30.4722C19.7697 30.6284 20.4885 31.1989 20.4885 31.4505C20.4885 31.5397 19.4254 31.5616 18.1264 31.4992C16.2299 31.4083 15.6748 31.3048 15.3107 30.9736C15.0611 30.7469 14.7363 30.5612 14.5887 30.5612C14.4412 30.5612 14.0815 30.4048 13.7897 30.2134C13.4977 30.022 13.0809 29.9191 12.8636 29.9846C12.2244 30.1773 11.2107 29.1127 10.483 27.4849C10.294 27.0619 9.26456 25.8708 8.19534 24.8378L6.25137 22.9595L6.1749 21.6293C6.12128 20.7011 6.1938 20.1837 6.41397 19.9182C6.80289 19.4495 6.53658 18.9338 5.69127 18.5187C5.01867 18.1887 4.98659 18.0602 5.42979 17.4741C6.25137 13.6923 6.69695 8.7151 7.65552 3.81171C8.04547 1.81698 7.63392 0.250884 7.36057 0.604213Z" fill="#F7F8F8"/>
</svg>
