<svg width="155" height="34" viewBox="0 0 155 34" fill="none" xmlns="http://www.w3.org/2000/svg">
<path d="M45.6094 22.6914C45.6094 23.4336 45.457 24.0039 45.1523 24.4023C44.8555 24.8008 44.3594 25 43.6641 25C43.0078 25 42.543 24.8008 42.2695 24.4023C42.0039 24.0039 41.8711 23.4336 41.8711 22.6914V10.3047C41.8711 9.5625 42.0039 8.99219 42.2695 8.59375C42.543 8.19531 43.0078 7.99609 43.6641 7.99609C44.3594 7.99609 44.8555 8.19531 45.1523 8.59375C45.457 8.99219 45.6094 9.5625 45.6094 10.3047V22.6914Z" fill="white"/>
<path d="M46.7441 19.0938C46.7441 18.2656 46.8769 17.4844 47.1426 16.75C47.416 16.0078 47.8222 15.3594 48.3613 14.8047C48.9082 14.25 49.5879 13.8086 50.4004 13.4805C51.2207 13.1523 52.1816 12.9883 53.2832 12.9883C54.3379 12.9883 55.2715 13.1406 56.084 13.4453C56.8965 13.75 57.5801 14.1758 58.1347 14.7227C58.6894 15.2617 59.1113 15.9062 59.4004 16.6562C59.6894 17.3984 59.834 18.2109 59.834 19.0938C59.834 19.9141 59.6972 20.6914 59.4238 21.4258C59.1504 22.1523 58.7402 22.793 58.1933 23.3477C57.6465 23.8945 56.9629 24.332 56.1426 24.6602C55.3222 24.9805 54.3691 25.1406 53.2832 25.1406C52.2129 25.1406 51.2676 24.9883 50.4472 24.6836C49.6347 24.3711 48.9512 23.9453 48.3965 23.4062C47.8496 22.8594 47.4355 22.2188 47.1543 21.4844C46.8808 20.7422 46.7441 19.9453 46.7441 19.0938ZM50.6465 19.0938C50.6465 19.6094 50.6933 20.1016 50.7871 20.5703C50.8808 21.0312 51.0293 21.4375 51.2324 21.7891C51.4433 22.1406 51.7168 22.4219 52.0527 22.6328C52.3887 22.8359 52.7988 22.9375 53.2832 22.9375C53.7285 22.9375 54.1152 22.8438 54.4433 22.6562C54.7793 22.4688 55.0527 22.207 55.2637 21.8711C55.4824 21.5352 55.6465 21.1328 55.7558 20.6641C55.8652 20.1875 55.9199 19.6641 55.9199 19.0938C55.9199 18.5781 55.8691 18.0898 55.7676 17.6289C55.6738 17.1602 55.5215 16.75 55.3105 16.3984C55.0996 16.0391 54.8262 15.7578 54.4902 15.5547C54.1621 15.3438 53.7597 15.2383 53.2832 15.2383C52.8066 15.2383 52.4004 15.3398 52.0644 15.543C51.7285 15.7461 51.4551 16.0234 51.2441 16.375C51.0332 16.7266 50.8808 17.1367 50.7871 17.6055C50.6933 18.0742 50.6465 18.5703 50.6465 19.0938Z" fill="white"/>
<path d="M69.4533 22.7383C69.2423 23.1289 68.9845 23.4609 68.6798 23.7344C68.383 24.0078 68.0509 24.2344 67.6838 24.4141C67.3244 24.5859 66.9377 24.7148 66.5236 24.8008C66.1173 24.8789 65.6994 24.918 65.2697 24.918C64.5509 24.918 63.8947 24.7891 63.3009 24.5312C62.7072 24.2734 62.1955 23.9023 61.7658 23.418C61.3439 22.9258 61.0158 22.3242 60.7814 21.6133C60.547 20.9023 60.4298 20.0898 60.4298 19.1758C60.4298 18.3164 60.5392 17.5117 60.758 16.7617C60.9767 16.0117 61.2931 15.3594 61.7072 14.8047C62.1291 14.25 62.6447 13.8125 63.2541 13.4922C63.8634 13.1719 64.5588 13.0117 65.34 13.0117C66.2306 13.0117 67.0197 13.1836 67.7072 13.5273C68.4025 13.8711 69.0002 14.4336 69.5002 15.2148V14.9102C69.5002 14.3477 69.6525 13.9258 69.9572 13.6445C70.2697 13.3555 70.6994 13.2109 71.2463 13.2109C71.5744 13.2109 71.8517 13.2656 72.0783 13.375C72.3048 13.4766 72.4845 13.6328 72.6173 13.8438C72.7502 14.0469 72.8439 14.3008 72.8986 14.6055C72.9611 14.9023 72.9923 15.2422 72.9923 15.625V23.4766C72.9923 24.4297 72.8713 25.2812 72.6291 26.0312C72.3947 26.7812 72.0275 27.4141 71.5275 27.9297C71.0275 28.4453 70.3869 28.8359 69.6056 29.1016C68.8244 29.375 67.8947 29.5117 66.8166 29.5117C66.0588 29.5117 65.3869 29.4766 64.8009 29.4062C64.2228 29.3438 63.7228 29.2461 63.3009 29.1133C62.8791 28.9648 62.5588 28.8008 62.34 28.6211C62.1291 28.4414 62.0236 28.207 62.0236 27.918C62.0236 27.7539 62.047 27.5977 62.0939 27.4492C62.1408 27.3008 62.2111 27.168 62.3048 27.0508C62.4064 26.9414 62.5353 26.8516 62.6916 26.7812C62.8556 26.7188 63.0548 26.6875 63.2892 26.6875C63.5392 26.6875 63.7892 26.7031 64.0392 26.7344C64.297 26.7656 64.5627 26.7969 64.8361 26.8281C65.1173 26.8672 65.4103 26.9023 65.715 26.9336C66.0275 26.9648 66.3634 26.9805 66.7228 26.9805C67.1525 26.9805 67.5353 26.9375 67.8713 26.8516C68.2072 26.7656 68.4923 26.6133 68.7267 26.3945C68.9611 26.1758 69.1408 25.8828 69.2658 25.5156C69.3908 25.1562 69.4533 24.6953 69.4533 24.1328V22.7383ZM69.4533 19.0938C69.4533 18.5234 69.4103 18.0039 69.3244 17.5352C69.2463 17.0664 69.1095 16.668 68.9142 16.3398C68.7189 16.0039 68.4572 15.7461 68.1291 15.5664C67.8009 15.3789 67.3908 15.2852 66.8986 15.2852C66.4142 15.2852 66.0119 15.3828 65.6916 15.5781C65.3791 15.7734 65.1291 16.043 64.9416 16.3867C64.7541 16.7305 64.6213 17.1328 64.5431 17.5938C64.4728 18.0547 64.4377 18.5469 64.4377 19.0703C64.4377 20.2656 64.6486 21.1641 65.0705 21.7656C65.4923 22.3672 66.1056 22.668 66.9103 22.668C67.2853 22.6602 67.6252 22.5898 67.9298 22.457C68.2423 22.3164 68.5119 22.1016 68.7384 21.8125C68.965 21.5234 69.1408 21.1562 69.2658 20.7109C69.3908 20.2656 69.4533 19.7266 69.4533 19.0938Z" fill="white"/>
<path d="M74.0686 19.0938C74.0686 18.2656 74.2014 17.4844 74.467 16.75C74.7405 16.0078 75.1467 15.3594 75.6858 14.8047C76.2327 14.25 76.9123 13.8086 77.7248 13.4805C78.5452 13.1523 79.5061 12.9883 80.6077 12.9883C81.6623 12.9883 82.5959 13.1406 83.4084 13.4453C84.2209 13.75 84.9045 14.1758 85.4592 14.7227C86.0139 15.2617 86.4358 15.9062 86.7248 16.6562C87.0139 17.3984 87.1584 18.2109 87.1584 19.0938C87.1584 19.9141 87.0217 20.6914 86.7483 21.4258C86.4748 22.1523 86.0647 22.793 85.5178 23.3477C84.9709 23.8945 84.2873 24.332 83.467 24.6602C82.6467 24.9805 81.6936 25.1406 80.6077 25.1406C79.5373 25.1406 78.592 24.9883 77.7717 24.6836C76.9592 24.3711 76.2756 23.9453 75.7209 23.4062C75.1741 22.8594 74.76 22.2188 74.4787 21.4844C74.2053 20.7422 74.0686 19.9453 74.0686 19.0938ZM77.9709 19.0938C77.9709 19.6094 78.0178 20.1016 78.1116 20.5703C78.2053 21.0312 78.3537 21.4375 78.5569 21.7891C78.7678 22.1406 79.0412 22.4219 79.3772 22.6328C79.7131 22.8359 80.1233 22.9375 80.6077 22.9375C81.053 22.9375 81.4397 22.8438 81.7678 22.6562C82.1037 22.4688 82.3772 22.207 82.5881 21.8711C82.8069 21.5352 82.9709 21.1328 83.0803 20.6641C83.1897 20.1875 83.2444 19.6641 83.2444 19.0938C83.2444 18.5781 83.1936 18.0898 83.092 17.6289C82.9983 17.1602 82.8459 16.75 82.635 16.3984C82.4241 16.0391 82.1506 15.7578 81.8147 15.5547C81.4866 15.3438 81.0842 15.2383 80.6077 15.2383C80.1311 15.2383 79.7248 15.3398 79.3889 15.543C79.053 15.7461 78.7795 16.0234 78.5686 16.375C78.3577 16.7266 78.2053 17.1367 78.1116 17.6055C78.0178 18.0742 77.9709 18.5703 77.9709 19.0938Z" fill="white"/>
<path d="M92.1839 9.03906C92.1839 9.29688 92.1253 9.52734 92.0081 9.73047C91.8909 9.92578 91.7386 10.0898 91.5511 10.2227C91.3636 10.3555 91.1448 10.457 90.8948 10.5273C90.6527 10.5898 90.4027 10.6211 90.1448 10.6211C89.8714 10.6211 89.6097 10.5859 89.3597 10.5156C89.1175 10.4453 88.9027 10.3438 88.7152 10.2109C88.5277 10.0703 88.3792 9.90234 88.2698 9.70703C88.1605 9.51172 88.1058 9.28906 88.1058 9.03906C88.1058 8.8125 88.1566 8.60547 88.2581 8.41797C88.3675 8.22266 88.512 8.05469 88.6917 7.91406C88.8714 7.77344 89.0863 7.66406 89.3363 7.58594C89.5863 7.50781 89.8597 7.46875 90.1566 7.46875C90.4144 7.46875 90.6644 7.50391 90.9066 7.57422C91.1566 7.64453 91.3753 7.74609 91.5628 7.87891C91.7503 8.01172 91.8988 8.17578 92.0081 8.37109C92.1253 8.56641 92.1839 8.78906 92.1839 9.03906ZM92.0081 22.6914C92.0081 23.4336 91.8558 24.0039 91.5511 24.4023C91.2542 24.8008 90.7581 25 90.0628 25C89.4066 25 88.9417 24.8008 88.6683 24.4023C88.4027 24.0039 88.2698 23.4336 88.2698 22.6914V15.5195C88.2698 14.7773 88.4027 14.207 88.6683 13.8086C88.9417 13.4102 89.4066 13.2109 90.0628 13.2109C90.7581 13.2109 91.2542 13.4102 91.5511 13.8086C91.8558 14.207 92.0081 14.7773 92.0081 15.5195V22.6914Z" fill="white"/>
<path d="M97.3969 19.0703C97.3969 19.5938 97.4359 20.082 97.5141 20.5352C97.6 20.9883 97.7406 21.3867 97.9359 21.7305C98.1391 22.0664 98.4047 22.332 98.7328 22.5273C99.0687 22.7227 99.4828 22.8203 99.975 22.8203C100.428 22.8203 100.807 22.7266 101.112 22.5391C101.424 22.3438 101.674 22.0781 101.862 21.7422C102.049 21.3984 102.182 20.9961 102.26 20.5352C102.346 20.0742 102.389 19.5742 102.389 19.0352C102.389 18.6055 102.358 18.168 102.295 17.7227C102.233 17.2695 102.116 16.8594 101.944 16.4922C101.772 16.125 101.534 15.8242 101.229 15.5898C100.924 15.3555 100.526 15.2383 100.034 15.2383C99.5414 15.2383 99.1234 15.3164 98.7797 15.4727C98.4437 15.6289 98.1703 15.8672 97.9594 16.1875C97.7562 16.5078 97.6117 16.9102 97.5258 17.3945C97.4398 17.8711 97.3969 18.4297 97.3969 19.0703ZM97.3852 15.5195C97.5805 15.1055 97.8305 14.7422 98.1352 14.4297C98.4398 14.1172 98.7758 13.8555 99.143 13.6445C99.5102 13.4336 99.893 13.2773 100.291 13.1758C100.698 13.0664 101.1 13.0117 101.498 13.0117C102.217 13.0117 102.866 13.1719 103.444 13.4922C104.022 13.8125 104.514 14.25 104.92 14.8047C105.334 15.3516 105.651 16 105.87 16.75C106.088 17.4922 106.198 18.2891 106.198 19.1406C106.198 20.0234 106.08 20.832 105.846 21.5664C105.62 22.3008 105.295 22.9336 104.873 23.4648C104.459 23.9883 103.959 24.3984 103.373 24.6953C102.795 24.9922 102.151 25.1406 101.44 25.1406C100.565 25.1406 99.7836 24.9375 99.0961 24.5312C98.4086 24.125 97.8383 23.5547 97.3852 22.8203V27.0391C97.3852 27.7812 97.2328 28.3516 96.9281 28.75C96.6312 29.1484 96.1352 29.3477 95.4398 29.3477C94.7836 29.3477 94.3187 29.1484 94.0453 28.75C93.7797 28.3516 93.6469 27.7812 93.6469 27.0391V15.5195C93.6469 14.7773 93.7797 14.207 94.0453 13.8086C94.3187 13.4102 94.7836 13.2109 95.4398 13.2109C96.1352 13.2109 96.6312 13.4102 96.9281 13.8086C97.2328 14.207 97.3852 14.7773 97.3852 15.5195Z" fill="white"/>
<path d="M110.321 16.3516C110.321 16.6562 110.454 16.8945 110.719 17.0664C110.985 17.2305 111.352 17.3672 111.821 17.4766C112.266 17.5781 112.723 17.6758 113.192 17.7695C113.661 17.8633 114.118 17.9727 114.563 18.0977C115.008 18.2148 115.426 18.3555 115.817 18.5195C116.207 18.6836 116.551 18.8906 116.848 19.1406C117.145 19.3828 117.379 19.6797 117.551 20.0312C117.723 20.375 117.809 20.7891 117.809 21.2734C117.809 21.8828 117.684 22.4258 117.434 22.9023C117.184 23.3711 116.829 23.7695 116.368 24.0977C115.915 24.4258 115.372 24.6797 114.739 24.8594C114.106 25.0391 113.407 25.1328 112.641 25.1406C111.915 25.1406 111.215 25.0938 110.543 25C109.872 24.9141 109.274 24.7773 108.75 24.5898C108.235 24.4023 107.821 24.1719 107.508 23.8984C107.196 23.6172 107.04 23.2891 107.04 22.9141C107.04 22.5859 107.145 22.332 107.356 22.1523C107.567 21.9727 107.836 21.8828 108.165 21.8828C108.29 21.8828 108.438 21.9062 108.61 21.9531C108.782 22 108.969 22.0586 109.172 22.1289C109.375 22.1992 109.59 22.2773 109.817 22.3633C110.051 22.4414 110.293 22.5117 110.543 22.5742C110.856 22.6602 111.176 22.7305 111.504 22.7852C111.84 22.832 112.184 22.8555 112.536 22.8555C112.754 22.8555 112.969 22.8359 113.18 22.7969C113.391 22.75 113.579 22.6836 113.743 22.5977C113.915 22.5039 114.055 22.3867 114.165 22.2461C114.274 22.1055 114.34 21.9336 114.364 21.7305C114.387 21.6836 114.407 21.6367 114.422 21.5898C114.438 21.543 114.446 21.4883 114.446 21.4258C114.446 21.207 114.344 21.0117 114.141 20.8398C113.946 20.668 113.668 20.5312 113.309 20.4297C112.707 20.2891 112.133 20.1602 111.586 20.043C111.04 19.9258 110.532 19.8008 110.063 19.668C109.602 19.5352 109.18 19.3828 108.797 19.2109C108.422 19.0391 108.102 18.8281 107.836 18.5781C107.579 18.3281 107.375 18.0273 107.227 17.6758C107.086 17.3242 107.016 16.8984 107.016 16.3984C107.016 15.8594 107.137 15.3789 107.379 14.957C107.629 14.5273 107.985 14.168 108.446 13.8789C108.907 13.5898 109.465 13.3711 110.122 13.2227C110.778 13.0664 111.52 12.9883 112.348 12.9883C113.832 12.9883 114.961 13.168 115.735 13.5273C116.516 13.8789 116.907 14.3398 116.907 14.9102C116.907 15.2305 116.801 15.4766 116.59 15.6484C116.379 15.8125 116.125 15.8945 115.829 15.8945C115.672 15.8945 115.508 15.8672 115.336 15.8125C115.172 15.75 114.973 15.6836 114.739 15.6133C114.504 15.5352 114.223 15.4688 113.895 15.4141C113.575 15.3516 113.176 15.3203 112.7 15.3203C112.34 15.3203 112.012 15.3359 111.715 15.3672C111.426 15.3984 111.176 15.4531 110.965 15.5312C110.762 15.6094 110.602 15.7148 110.485 15.8477C110.375 15.9805 110.321 16.1484 110.321 16.3516Z" fill="white"/>
<path d="M122.565 20.6523C122.565 21.0195 122.612 21.3398 122.706 21.6133C122.807 21.8867 122.944 22.1172 123.116 22.3047C123.288 22.4844 123.487 22.6211 123.713 22.7148C123.948 22.8008 124.198 22.8438 124.463 22.8438C124.776 22.8438 125.077 22.7969 125.366 22.7031C125.655 22.6094 125.909 22.4648 126.128 22.2695C126.354 22.0742 126.534 21.8281 126.667 21.5312C126.799 21.2344 126.866 20.8867 126.866 20.4883V15.5195C126.866 14.7773 126.999 14.207 127.264 13.8086C127.538 13.4102 128.003 13.2109 128.659 13.2109C129.354 13.2109 129.85 13.4102 130.147 13.8086C130.452 14.207 130.604 14.7773 130.604 15.5195V22.6914C130.604 23.4336 130.452 24.0039 130.147 24.4023C129.85 24.8008 129.354 25 128.659 25C128.003 25 127.538 24.8008 127.264 24.4023C126.999 24.0039 126.866 23.4336 126.866 22.6914C126.702 23.0508 126.487 23.3789 126.221 23.6758C125.963 23.9727 125.659 24.2305 125.307 24.4492C124.963 24.6602 124.581 24.8242 124.159 24.9414C123.745 25.0586 123.295 25.1172 122.811 25.1172C122.288 25.1172 121.784 25.0273 121.299 24.8477C120.823 24.6602 120.401 24.3867 120.034 24.0273C119.667 23.6602 119.374 23.207 119.155 22.668C118.936 22.1289 118.827 21.5 118.827 20.7812V15.5195C118.827 14.7773 118.96 14.207 119.225 13.8086C119.499 13.4102 119.963 13.2109 120.62 13.2109C121.315 13.2109 121.811 13.4102 122.108 13.8086C122.413 14.207 122.565 14.7773 122.565 15.5195V20.6523Z" fill="white"/>
<path d="M132.301 15.5195C132.301 14.7773 132.434 14.207 132.7 13.8086C132.973 13.4102 133.438 13.2109 134.094 13.2109C134.79 13.2109 135.286 13.4102 135.583 13.8086C135.887 14.207 136.04 14.7773 136.04 15.5195C136.196 15.1445 136.407 14.8047 136.673 14.5C136.946 14.1875 137.255 13.9219 137.598 13.7031C137.95 13.4844 138.329 13.3164 138.735 13.1992C139.141 13.0742 139.563 13.0117 140.001 13.0117C140.407 13.0117 140.805 13.0664 141.196 13.1758C141.594 13.2773 141.962 13.4453 142.298 13.6797C142.641 13.9062 142.942 14.1953 143.2 14.5469C143.458 14.8984 143.657 15.3203 143.798 15.8125C144.04 15.2891 144.325 14.8477 144.653 14.4883C144.981 14.1289 145.337 13.8398 145.719 13.6211C146.102 13.4023 146.501 13.2461 146.915 13.1523C147.337 13.0586 147.758 13.0117 148.18 13.0117C148.68 13.0117 149.157 13.1016 149.61 13.2812C150.071 13.4609 150.473 13.7344 150.817 14.1016C151.169 14.4609 151.446 14.918 151.649 15.4727C151.86 16.0195 151.965 16.6602 151.965 17.3945V22.6914C151.965 23.4336 151.813 24.0039 151.508 24.4023C151.212 24.8008 150.715 25 150.02 25C149.364 25 148.899 24.8008 148.626 24.4023C148.36 24.0039 148.227 23.4336 148.227 22.6914V17.5586C148.227 17.207 148.18 16.8945 148.087 16.6211C147.993 16.3398 147.86 16.1055 147.688 15.918C147.524 15.7227 147.329 15.5781 147.102 15.4844C146.876 15.3828 146.633 15.332 146.376 15.332C146.055 15.332 145.751 15.3828 145.462 15.4844C145.173 15.5859 144.919 15.7422 144.7 15.9531C144.489 16.1641 144.317 16.4336 144.184 16.7617C144.059 17.0898 143.997 17.4844 143.997 17.9453V22.6914C143.997 23.4336 143.844 24.0039 143.54 24.4023C143.243 24.8008 142.747 25 142.051 25C141.395 25 140.93 24.8008 140.657 24.4023C140.391 24.0039 140.258 23.4336 140.258 22.6914V17.7812C140.258 16.9766 140.09 16.3672 139.755 15.9531C139.426 15.5391 138.977 15.332 138.407 15.332C138.071 15.332 137.758 15.3867 137.469 15.4961C137.18 15.6055 136.93 15.7656 136.719 15.9766C136.508 16.1875 136.34 16.4492 136.215 16.7617C136.098 17.0742 136.04 17.4336 136.04 17.8398V22.6914C136.04 23.4336 135.887 24.0039 135.583 24.4023C135.286 24.8008 134.79 25 134.094 25C133.438 25 132.973 24.8008 132.7 24.4023C132.434 24.0039 132.301 23.4336 132.301 22.6914V15.5195Z" fill="white"/>
<path d="M17.5 23C14.1863 23 11.5 20.3137 11.5 17C11.5 13.6863 14.1863 11 17.5 11C20.8137 11 23.5 13.6863 23.5 17C23.5 20.3137 20.8137 23 17.5 23Z" fill="white"/>
<path d="M5.87629 19.0496C4.13754 19.3562 2.94572 21.0358 3.61317 22.6704C4.54501 24.9524 6.03164 26.9856 7.95895 28.5744C10.7149 30.8461 14.1909 32.06 17.7619 31.9977C21.3329 31.9354 24.7645 30.6009 27.4395 28.2343C29.3101 26.5793 30.7249 24.4954 31.5766 22.1823C32.1866 20.5254 30.9368 18.8884 29.1884 18.6427C27.4401 18.397 25.8703 19.6696 25.0067 21.2096C24.5386 22.0443 23.9309 22.8016 23.2029 23.4457C21.6681 24.8036 19.6992 25.5692 17.6504 25.605C15.6015 25.6407 13.6071 24.9443 12.0259 23.6408C11.2758 23.0225 10.6421 22.2869 10.1451 21.469C9.22829 19.9601 7.61504 18.743 5.87629 19.0496Z" fill="white"/>
<path d="M32.384 18.8745C32.4606 18.2604 32.5 17.6348 32.5 17C32.5 8.71573 25.7843 2 17.5 2C9.21573 2 2.5 8.71573 2.5 17C2.5 17.8147 2.56495 18.6142 2.68996 19.3937C3.37894 18.4505 4.45426 17.7772 5.61576 17.5724C6.87245 17.3508 8.01458 17.6556 8.98027 18.2253C8.92322 17.8251 8.8937 17.416 8.8937 17C8.8937 12.2469 12.7469 8.3937 17.5 8.3937C22.2531 8.3937 26.1063 12.2469 26.1063 17C26.1063 17.3134 26.0895 17.6229 26.0569 17.9276C27.0022 17.3243 28.1332 16.9796 29.3971 17.1573C30.5647 17.3214 31.6625 17.9564 32.384 18.8745Z" fill="white"/>
</svg>
