<svg width="268" height="53" viewBox="0 0 268 53" fill="none" xmlns="http://www.w3.org/2000/svg">
<path d="M92.8185 30.7113C92.8185 33.0338 92.3831 35.182 91.5121 37.1561C90.6412 39.1301 89.451 40.8429 87.9414 42.2945C86.4609 43.746 84.719 44.8636 82.7159 45.6475C80.7419 46.4313 78.6372 46.8232 76.4018 46.8232C74.1955 46.8232 72.1053 46.4458 70.1313 45.691C68.1572 44.9072 66.4299 43.8186 64.9493 42.4251C63.4688 41.0026 62.293 39.3188 61.4221 37.3738C60.5802 35.3997 60.1593 33.237 60.1593 30.8855C60.1593 28.3889 60.6093 26.1536 61.5092 24.1795C62.4092 22.1764 63.6139 20.4926 65.1235 19.1282C66.6621 17.7347 68.4475 16.6751 70.4796 15.9494C72.5408 15.1946 74.7035 14.8172 76.9679 14.8172C79.4355 14.8172 81.6418 15.2526 83.5868 16.1235C85.5609 16.9945 87.2302 18.1702 88.5946 19.6507C89.959 21.1023 91.0041 22.786 91.7299 24.702C92.4556 26.618 92.8185 28.6211 92.8185 30.7113ZM87.4189 30.7549C87.4189 28.984 87.1866 27.1986 86.7221 25.3988C86.2867 23.5989 85.6045 21.9732 84.6755 20.5217C83.7755 19.0411 82.6434 17.8509 81.2789 16.9509C79.9145 16.0219 78.3033 15.5575 76.4454 15.5575C74.5584 15.5575 72.9182 16.0219 71.5247 16.9509C70.1603 17.8509 69.0281 19.0266 68.1282 20.4781C67.2572 21.9296 66.6041 23.5844 66.1686 25.4423C65.7622 27.2712 65.559 29.1292 65.559 31.0161C65.559 32.9902 65.7912 34.8917 66.2557 36.7206C66.7202 38.5495 67.4024 40.1607 68.3023 41.5542C69.2313 42.9476 70.378 44.0653 71.7424 44.9072C73.1359 45.7491 74.7471 46.17 76.576 46.17C78.4049 46.17 79.9871 45.7055 81.3225 44.7766C82.6869 43.8476 83.8191 42.6573 84.719 41.2058C85.619 39.7253 86.2867 38.0705 86.7221 36.2416C87.1866 34.4127 87.4189 32.5838 87.4189 30.7549ZM110.046 27.8809C110.046 28.5195 109.857 29.0566 109.48 29.492C109.102 29.8985 108.667 30.1017 108.173 30.1017C107.709 30.1017 107.332 30.0291 107.041 29.884C106.78 29.7098 106.548 29.5211 106.345 29.3179C106.141 29.1147 105.924 28.9405 105.691 28.7953C105.459 28.6211 105.14 28.534 104.733 28.534C104.385 28.534 104.037 28.6647 103.688 28.926C103.369 29.1582 103.064 29.463 102.774 29.8404C102.483 30.2178 102.222 30.6533 101.99 31.1468C101.758 31.6113 101.555 32.0612 101.38 32.4967V45.0378C101.467 45.2991 101.656 45.5023 101.946 45.6475C102.237 45.7926 102.556 45.8942 102.904 45.9523C103.282 46.0103 103.659 46.0539 104.037 46.0829C104.443 46.0829 104.791 46.112 105.082 46.17V46.6055H95.3275V46.17C95.9952 46.112 96.5613 45.9813 97.0258 45.7781C97.5193 45.5749 97.766 45.241 97.766 44.7766V30.0581C97.766 29.8259 97.737 29.6517 97.6789 29.5356C97.6499 29.4195 97.5338 29.2888 97.3306 29.1437C97.0693 28.9985 96.7645 28.8243 96.4161 28.6211C96.0678 28.3889 95.7194 28.2002 95.371 28.055V27.7938L101.076 25.5729H101.337L101.25 31.6258H101.337C101.482 31.2774 101.714 30.7694 102.034 30.1017C102.353 29.434 102.759 28.7663 103.253 28.0986C103.746 27.4019 104.341 26.8067 105.038 26.3132C105.735 25.8197 106.533 25.5729 107.433 25.5729C108.159 25.5729 108.769 25.7907 109.262 26.2261C109.785 26.6616 110.046 27.2132 110.046 27.8809ZM117.336 18.6927C117.336 19.3604 117.104 19.9265 116.64 20.391C116.204 20.8265 115.653 21.0442 114.985 21.0442C114.346 21.0442 113.795 20.812 113.33 20.3475C112.866 19.883 112.633 19.3314 112.633 18.6927C112.633 18.025 112.851 17.4735 113.287 17.038C113.751 16.6025 114.317 16.3848 114.985 16.3848C115.653 16.3848 116.204 16.6025 116.64 17.038C117.104 17.4735 117.336 18.025 117.336 18.6927ZM119.775 46.6055H110.413V46.17C110.761 46.141 111.109 46.112 111.458 46.0829C111.806 46.0249 112.111 45.9523 112.372 45.8652C112.662 45.7491 112.895 45.6039 113.069 45.4297C113.272 45.2556 113.374 45.0378 113.374 44.7766V29.8404C113.374 29.6082 113.345 29.405 113.287 29.2308C113.258 29.0566 113.141 28.8969 112.938 28.7518C112.677 28.5776 112.358 28.4034 111.98 28.2292C111.632 28.055 111.255 27.8954 110.848 27.7502V27.4889L116.727 25.5729H116.988V45.0378C117.046 45.3281 117.162 45.5459 117.336 45.691C117.54 45.8071 117.772 45.8942 118.033 45.9523C118.294 46.0103 118.57 46.0539 118.86 46.0829C119.18 46.0829 119.485 46.112 119.775 46.17V46.6055ZM142.11 35.9368C142.11 37.4173 141.834 38.8253 141.282 40.1607C140.731 41.4671 139.991 42.6138 139.062 43.6008C138.133 44.5879 137.044 45.3572 135.796 45.9087C134.576 46.4603 133.285 46.7361 131.92 46.7361C130.788 46.7361 129.612 46.5329 128.393 46.1265C127.174 45.72 126.041 45.0814 124.996 44.2105C123.98 43.3105 123.138 42.1783 122.471 40.8139C121.832 39.4204 121.513 37.7947 121.513 35.9368C121.513 34.6014 121.759 33.3095 122.253 32.0612C122.775 30.8129 123.487 29.7098 124.387 28.7518C125.316 27.7938 126.419 27.0245 127.696 26.4439C129.003 25.8632 130.44 25.5729 132.007 25.5729C133.168 25.5729 134.344 25.7907 135.534 26.2261C136.725 26.6616 137.799 27.3148 138.757 28.1857C139.744 29.0276 140.542 30.1017 141.152 31.4081C141.79 32.6854 142.11 34.195 142.11 35.9368ZM138.06 35.8933C138.06 34.9062 137.944 33.8466 137.712 32.7144C137.508 31.5822 137.16 30.5371 136.667 29.5791C136.173 28.6211 135.52 27.8373 134.707 27.2277C133.894 26.589 132.893 26.2697 131.702 26.2697C130.744 26.2697 129.888 26.56 129.133 27.1406C128.378 27.7212 127.725 28.4905 127.174 29.4485C126.651 30.3775 126.245 31.4371 125.954 32.6273C125.693 33.7885 125.562 34.9788 125.562 36.1981C125.562 37.5335 125.679 38.7963 125.911 39.9865C126.143 41.1768 126.52 42.2364 127.043 43.1654C127.566 44.0653 128.233 44.7911 129.046 45.3426C129.859 45.8652 130.831 46.1265 131.964 46.1265C133.096 46.1265 134.039 45.7926 134.794 45.1249C135.578 44.4282 136.202 43.5718 136.667 42.5557C137.16 41.5106 137.508 40.393 137.712 39.2027C137.944 38.0125 138.06 36.9093 138.06 35.8933ZM165.221 46.6055H156.338V46.1265C157.122 46.0684 157.746 45.9813 158.21 45.8652C158.675 45.72 158.907 45.4152 158.907 44.9507V33.9772C158.907 32.2935 158.588 30.9436 157.949 29.9275C157.31 28.8824 156.236 28.3599 154.727 28.3599C153.769 28.3599 152.97 28.5631 152.332 28.9695C151.693 29.3759 150.982 29.971 150.198 30.7549V45.0378C150.256 45.3281 150.358 45.5459 150.503 45.691C150.648 45.8071 150.822 45.8942 151.025 45.9523C151.229 46.0103 151.461 46.0539 151.722 46.0829C151.983 46.0829 152.259 46.112 152.549 46.17V46.6055H144.145V46.17C144.813 46.112 145.379 45.9813 145.843 45.7781C146.337 45.5749 146.584 45.241 146.584 44.7766V29.7969C146.584 29.5646 146.555 29.3904 146.497 29.2743C146.468 29.1582 146.351 29.0276 146.148 28.8824C145.887 28.7373 145.582 28.5776 145.234 28.4034C144.885 28.2002 144.537 28.026 144.189 27.8809V27.6196L149.893 25.5729H150.154V30.2759L150.242 30.3194C150.561 29.8259 150.953 29.3033 151.417 28.7518C151.911 28.1712 152.462 27.6486 153.072 27.1841C153.682 26.7196 154.349 26.3422 155.075 26.0519C155.801 25.7326 156.556 25.5729 157.339 25.5729C159.023 25.5729 160.315 26.1971 161.215 27.4454C162.115 28.6937 162.565 30.3049 162.565 32.279V45.0814C162.565 45.2846 162.652 45.4588 162.826 45.6039C163.029 45.7491 163.262 45.8652 163.523 45.9523C163.784 46.0103 164.06 46.0684 164.35 46.1265C164.67 46.1555 164.96 46.1845 165.221 46.2136V46.6055Z" fill="#2041AD"/>
<path d="M199.076 38.027C199.076 39.4204 198.785 40.6688 198.205 41.7719C197.653 42.8751 196.869 43.8186 195.853 44.6024C194.866 45.3862 193.676 45.9668 192.282 46.3442C190.889 46.7216 189.365 46.9103 187.71 46.9103C186.288 46.9103 185.068 46.8232 184.052 46.649C183.036 46.4748 182.194 46.2716 181.527 46.0394C180.859 45.7781 180.351 45.5459 180.003 45.3426C179.683 45.1394 179.48 45.0378 179.393 45.0378C179.306 45.0378 179.117 45.212 178.827 45.5604C178.537 45.9087 178.275 46.2426 178.043 46.5619H177.651L177.52 37.8963H177.956C178.217 38.6802 178.551 39.4495 178.957 40.2043C179.364 40.93 179.799 41.6268 180.264 42.2945C180.757 42.9331 181.265 43.4992 181.788 43.9927C182.34 44.4862 182.862 44.8636 183.356 45.1249C183.849 45.3862 184.502 45.6475 185.315 45.9087C186.128 46.17 186.912 46.3006 187.667 46.3006C189.815 46.3006 191.557 45.72 192.892 44.5588C194.227 43.3686 194.895 41.7719 194.895 39.7688C194.895 38.956 194.765 38.2447 194.503 37.6351C194.242 37.0254 193.879 36.5029 193.415 36.0674C192.979 35.6029 192.457 35.211 191.847 34.8917C191.237 34.5724 190.584 34.2821 189.887 34.0208C189.191 33.7595 188.581 33.5418 188.059 33.3676C187.536 33.1934 187.042 33.0338 186.578 32.8886C186.143 32.7144 185.678 32.5548 185.185 32.4096C184.72 32.2354 184.154 32.0177 183.486 31.7564C182.731 31.4661 182.006 31.0742 181.309 30.5807C180.612 30.0581 180.003 29.463 179.48 28.7953C178.957 28.0986 178.537 27.3438 178.217 26.5309C177.898 25.6891 177.738 24.8036 177.738 23.8747C177.738 22.307 178.014 20.9571 178.566 19.8249C179.146 18.6927 179.915 17.7492 180.873 16.9945C181.832 16.2397 182.935 15.6881 184.183 15.3397C185.46 14.9623 186.796 14.7736 188.189 14.7736C189.496 14.7736 190.613 14.8898 191.542 15.122C192.471 15.3252 193.226 15.5575 193.807 15.8187C194.416 16.08 194.866 16.3268 195.156 16.559C195.476 16.7622 195.65 16.8638 195.679 16.8638C195.766 16.8638 195.94 16.6896 196.202 16.3413C196.492 15.9929 196.753 15.6445 196.985 15.2962H197.464V23.3521H196.985C196.637 22.3941 196.187 21.4506 195.635 20.5217C195.084 19.5636 194.445 18.7218 193.719 17.996C192.994 17.2412 192.166 16.6316 191.237 16.1671C190.308 15.7026 189.278 15.4704 188.146 15.4704C187.246 15.4704 186.389 15.601 185.576 15.8623C184.793 16.1235 184.096 16.5155 183.486 17.038C182.906 17.5606 182.441 18.2137 182.093 18.9976C181.773 19.7523 181.614 20.6233 181.614 21.6103C181.614 23.1489 182.078 24.3827 183.007 25.3117C183.936 26.2406 185.141 26.9809 186.622 27.5325C187.202 27.7647 187.739 27.968 188.233 28.1421C188.755 28.3163 189.263 28.4905 189.757 28.6647C190.25 28.8098 190.744 28.9695 191.237 29.1437C191.76 29.3179 192.297 29.5066 192.849 29.7098C194.823 30.4355 196.347 31.4951 197.421 32.8886C198.524 34.253 199.076 35.9658 199.076 38.027ZM216.427 26.0084L215.077 28.6647H208.458V40.1172C208.458 41.5977 208.778 42.6718 209.416 43.3395C210.055 44.0072 210.882 44.3411 211.898 44.3411C212.74 44.3411 213.437 44.2105 213.989 43.9492C214.54 43.6589 215.019 43.2234 215.426 42.6428L215.687 42.7735C215.513 43.2089 215.266 43.6734 214.947 44.1669C214.656 44.6314 214.25 45.0669 213.727 45.4733C213.234 45.8507 212.639 46.1555 211.942 46.3877C211.274 46.591 210.476 46.6926 209.547 46.6926C208.937 46.6926 208.342 46.6055 207.762 46.4313C207.21 46.2281 206.716 45.9523 206.281 45.6039C205.846 45.2265 205.483 44.8201 205.192 44.3846C204.931 43.9202 204.8 43.4557 204.8 42.9912C204.8 40.2623 204.815 37.6786 204.844 35.2401C204.873 32.7725 204.888 30.5807 204.888 28.6647H201.709V28.1857L208.023 22.2199H208.371V26.0084H216.427ZM235.51 42.338C235.481 42.8896 235.35 43.4266 235.118 43.9492C234.885 44.4717 234.581 44.9507 234.203 45.3862C233.826 45.7926 233.376 46.112 232.853 46.3442C232.36 46.5474 231.808 46.649 231.199 46.649C230.212 46.649 229.326 46.3587 228.542 45.7781C227.788 45.1975 227.41 44.1814 227.41 42.7299L227.323 42.6864C227.091 43.0638 226.771 43.4847 226.365 43.9492C225.988 44.4137 225.523 44.8491 224.972 45.2556C224.449 45.662 223.854 45.9958 223.186 46.2571C222.548 46.4893 221.836 46.6055 221.052 46.6055C220.588 46.6055 220.109 46.5474 219.615 46.4313C219.151 46.2861 218.716 46.0539 218.309 45.7346C217.932 45.3862 217.612 44.9507 217.351 44.4282C217.119 43.9056 217.003 43.267 217.003 42.5122C217.003 41.6993 217.322 40.9155 217.961 40.1607C218.628 39.4059 219.441 38.7237 220.399 38.1141C221.357 37.5044 222.199 36.9819 222.925 36.5464C223.68 36.111 224.333 35.7481 224.884 35.4578C225.436 35.1385 225.915 34.8772 226.321 34.674C226.757 34.4417 227.12 34.2385 227.41 34.0643V29.5791C227.41 29.5211 227.352 29.3904 227.236 29.1872C227.149 28.955 226.975 28.7227 226.713 28.4905C226.481 28.2583 226.147 28.055 225.712 27.8809C225.276 27.6776 224.71 27.576 224.014 27.576C223.549 27.576 223.085 27.6631 222.62 27.8373C222.185 27.9825 221.793 28.1857 221.444 28.447C221.096 28.6792 220.82 28.926 220.617 29.1872C220.414 29.4195 220.312 29.6227 220.312 29.7969V31.7564C220.312 32.1628 220.094 32.5257 219.659 32.8451C219.253 33.1644 218.803 33.3241 218.309 33.3241C217.845 33.3241 217.438 33.1644 217.09 32.8451C216.77 32.4967 216.611 32.1048 216.611 31.6693C216.611 31.321 216.698 31.0016 216.872 30.7113C217.046 30.421 217.264 30.1597 217.525 29.9275C217.787 29.6953 218.062 29.492 218.353 29.3179C218.672 29.1437 218.948 28.984 219.18 28.8389C219.935 28.4034 220.704 27.9825 221.488 27.576C222.272 27.1696 223.012 26.8212 223.709 26.5309C224.435 26.2406 225.088 26.0084 225.668 25.8342C226.278 25.66 226.771 25.5729 227.149 25.5729C227.904 25.5729 228.615 25.7762 229.283 26.1826C229.95 26.56 230.429 27.039 230.72 27.6196C230.836 27.8228 230.908 28.1857 230.937 28.7082C230.966 29.2017 230.981 29.6953 230.981 30.1888C230.981 31.2339 230.966 32.1774 230.937 33.0192C230.937 33.8611 230.937 34.674 230.937 35.4578C230.937 36.2416 230.923 37.0545 230.894 37.8963C230.894 38.7092 230.894 39.6091 230.894 40.5962C230.894 41.9025 231.112 42.7735 231.547 43.2089C232.011 43.6153 232.534 43.8186 233.115 43.8186C233.782 43.8186 234.276 43.6879 234.595 43.4266C234.914 43.1363 235.132 42.7735 235.248 42.338H235.51ZM227.41 41.4671V34.7611C226.888 35.1385 226.234 35.5449 225.451 35.9803C224.667 36.3868 223.897 36.8367 223.143 37.3303C222.417 37.8238 221.778 38.3753 221.227 38.985C220.704 39.5656 220.443 40.2333 220.443 40.9881C220.443 41.7429 220.704 42.4251 221.227 43.0347C221.749 43.6444 222.431 43.9492 223.273 43.9492C224.028 43.9492 224.696 43.8621 225.276 43.6879C225.857 43.5137 226.394 43.1799 226.888 42.6864C227.236 42.367 227.41 41.9606 227.41 41.4671ZM250.761 27.8809C250.761 28.5195 250.572 29.0566 250.195 29.492C249.818 29.8985 249.382 30.1017 248.889 30.1017C248.424 30.1017 248.047 30.0291 247.756 29.884C247.495 29.7098 247.263 29.5211 247.06 29.3179C246.857 29.1147 246.639 28.9405 246.407 28.7953C246.174 28.6211 245.855 28.534 245.449 28.534C245.1 28.534 244.752 28.6647 244.403 28.926C244.084 29.1582 243.779 29.463 243.489 29.8404C243.199 30.2178 242.937 30.6533 242.705 31.1468C242.473 31.6113 242.27 32.0612 242.096 32.4967V45.0378C242.183 45.2991 242.371 45.5023 242.662 45.6475C242.952 45.7926 243.271 45.8942 243.62 45.9523C243.997 46.0103 244.374 46.0539 244.752 46.0829C245.158 46.0829 245.507 46.112 245.797 46.17V46.6055H236.043V46.17C236.71 46.112 237.277 45.9813 237.741 45.7781C238.235 45.5749 238.481 45.241 238.481 44.7766V30.0581C238.481 29.8259 238.452 29.6517 238.394 29.5356C238.365 29.4195 238.249 29.2888 238.046 29.1437C237.785 28.9985 237.48 28.8243 237.131 28.6211C236.783 28.3889 236.435 28.2002 236.086 28.055V27.7938L241.791 25.5729H242.052L241.965 31.6258H242.052C242.197 31.2774 242.429 30.7694 242.749 30.1017C243.068 29.434 243.474 28.7663 243.968 28.0986C244.462 27.4019 245.057 26.8067 245.753 26.3132C246.45 25.8197 247.248 25.5729 248.148 25.5729C248.874 25.5729 249.484 25.7907 249.977 26.2261C250.5 26.6616 250.761 27.2132 250.761 27.8809ZM266.412 40.2478C266.412 41.38 266.18 42.367 265.716 43.2089C265.28 44.0218 264.685 44.6895 263.93 45.212C263.175 45.7346 262.305 46.112 261.318 46.3442C260.36 46.5764 259.343 46.6926 258.269 46.6926C256.992 46.6926 255.787 46.5764 254.655 46.3442C253.523 46.112 252.478 45.7781 251.52 45.3426V39.5946H251.868C252.1 40.2914 252.391 41.0316 252.739 41.8155C253.087 42.5702 253.508 43.2815 254.002 43.9492C254.495 44.5879 255.091 45.1249 255.787 45.5604C256.484 45.9668 257.311 46.17 258.269 46.17C259.663 46.17 260.766 45.7781 261.579 44.9943C262.421 44.1814 262.842 42.9476 262.842 41.2929C262.842 40.393 262.551 39.6527 261.971 39.0721C261.419 38.4624 260.65 38.056 259.663 37.8528C258.879 37.7077 258.124 37.548 257.398 37.3738C256.673 37.1996 256.019 37.0109 255.439 36.8077C254.336 36.4303 253.436 35.7771 252.739 34.8482C252.071 33.9192 251.737 32.8015 251.737 31.4951C251.737 30.5952 251.926 29.7824 252.304 29.0566C252.681 28.3308 253.189 27.7067 253.828 27.1841C254.466 26.6616 255.207 26.2697 256.049 26.0084C256.89 25.7181 257.79 25.5729 258.748 25.5729C259.968 25.5729 261.042 25.6891 261.971 25.9213C262.9 26.1245 263.785 26.3858 264.627 26.7051L265.15 32.1048L264.801 32.1919C264.395 31.321 263.988 30.5226 263.582 29.7969C263.175 29.0421 262.726 28.4034 262.232 27.8809C261.738 27.3293 261.172 26.9083 260.534 26.618C259.924 26.3277 259.213 26.1826 258.4 26.1826C257.906 26.1826 257.413 26.2697 256.919 26.4439C256.455 26.618 256.034 26.8793 255.657 27.2277C255.308 27.547 255.018 27.968 254.786 28.4905C254.553 28.984 254.437 29.5646 254.437 30.2323C254.437 31.3064 254.742 32.0758 255.352 32.5402C255.961 33.0047 256.731 33.3531 257.66 33.5853C258.298 33.7305 258.995 33.8902 259.75 34.0643C260.505 34.2095 261.158 34.3546 261.709 34.4998C263.016 34.8191 264.119 35.4868 265.019 36.5029C265.948 37.519 266.412 38.7673 266.412 40.2478Z" fill="#3E404E"/>
<path fill-rule="evenodd" clip-rule="evenodd" d="M7.84031 0.418667C6.26172 2.4573 3.96919 15.682 3.06593 16.8986C2.2364 16.8249 1.85151 17.282 1.85151 17.6654C1.85151 18.0664 1.61991 18.6624 1.30218 19.079C0.700548 19.8676 0.622763 20.2697 0.998945 20.6459C1.56607 21.213 1.84777 23.8078 1.40062 24.3468C1.07937 24.7338 1.7423 25.9012 2.37733 26.0673C2.8937 26.2023 3.81152 26.0208 4.21363 25.7041C4.40985 25.5494 4.48829 25.5914 4.48829 25.8511C4.48829 26.0511 4.63661 26.2715 4.81789 26.3409C4.99917 26.4106 5.14793 26.5804 5.14837 26.7186C5.14881 26.8568 5.39403 27.4521 5.69331 28.0419C5.99236 28.6314 6.18353 29.2007 6.11783 29.3069C6.05213 29.413 6.15321 29.5591 6.34218 29.6316C6.53093 29.7041 6.68562 29.9386 6.68562 30.1526C6.68562 30.3664 6.84053 30.6701 7.02972 30.8272C7.21891 30.9843 7.5173 31.3902 7.69265 31.7292C7.868 32.0683 8.28175 32.4877 8.61201 32.6611C8.94227 32.8347 9.59575 33.3306 10.0642 33.7635C10.5325 34.1964 11.028 34.5506 11.1649 34.5506C11.302 34.5506 11.5298 34.7358 11.6711 34.9623C11.8126 35.1889 12.2062 35.4438 12.5459 35.529C12.8854 35.6143 13.2136 35.7503 13.2754 35.8314C13.598 36.2555 14.7715 36.6954 15.3075 36.593C15.7333 36.5115 15.9487 36.5816 16.0451 36.8327C16.1198 37.0278 16.3075 37.1874 16.4619 37.1874C16.6164 37.1874 16.9093 37.4414 17.1128 37.7521C17.3163 38.0626 17.8583 38.7037 18.3174 39.1766C18.7764 39.6497 19.3011 40.3445 19.4833 40.7207C19.8397 41.4565 21.2947 43.3563 22.4514 44.5961C22.917 45.0951 23.1655 45.5831 23.1655 45.9986V46.6359H25.0302C26.8731 46.6359 28.8786 46.2687 28.8786 45.9312C28.8786 45.8354 29.101 45.753 29.373 45.7481C30.1972 45.7336 32.1873 44.5216 32.7525 43.6901C33.2539 42.9523 33.2882 42.6974 33.3574 39.2032C33.4167 36.2023 33.5072 35.3251 33.8338 34.5851C34.0849 34.0155 34.3813 33.6716 34.6208 33.6716C34.8322 33.6716 35.0662 33.5728 35.141 33.4519C35.2157 33.3311 35.4686 33.2322 35.7033 33.2322C35.9379 33.2322 36.1298 33.1333 36.1298 33.0124C36.1298 32.8916 36.2704 32.7927 36.4424 32.7927C36.6145 32.7927 37.0491 32.5455 37.4082 32.2434C37.7672 31.9413 38.213 31.6941 38.3987 31.6941C38.5846 31.6941 38.9621 31.3728 39.2379 30.9799C39.87 30.0795 40.2346 29.7914 41.1276 29.4868C41.7048 29.2899 41.9039 29.3066 42.1713 29.5743C42.3532 29.756 42.502 29.9746 42.502 30.0601C42.502 30.2293 43.5563 31.2546 43.7303 31.2546C43.7892 31.2546 44.2491 31.6501 44.7521 32.1335C45.2552 32.6169 45.7323 33.0124 45.8125 33.0124C45.8927 33.0124 46.2928 33.3067 46.702 33.6664C47.5503 34.4119 48.0078 34.3715 48.7855 33.4818C49.8663 32.2451 50.0922 31.5791 49.8002 30.4877C49.446 29.1638 49.4638 28.6307 49.8672 28.4758C50.1344 28.3734 50.1713 28.1221 50.052 27.2194C49.97 26.5987 49.7672 25.7652 49.6013 25.3671C49.4354 24.9689 49.3563 24.5516 49.4255 24.4396C49.4948 24.3277 49.3989 23.9414 49.2128 23.5813C49.0265 23.2211 48.8742 22.6804 48.8742 22.3794C48.8742 22.0783 48.7753 21.7709 48.6545 21.6962C48.5336 21.6215 48.4348 21.3273 48.4348 21.0423C48.4348 20.7575 48.3607 20.4914 48.27 20.451C48.1792 20.4108 47.9327 20.0317 47.722 19.6087C47.295 18.7516 46.8518 18.0174 46.6609 17.8509C46.4943 17.7056 46.157 16.9223 46.1364 16.6329C46.1183 16.3818 45.7371 15.8834 44.974 15.1133C44.702 14.8388 44.4796 14.5332 44.4796 14.4338C44.4796 14.3345 44.0439 13.8021 43.5112 13.2506C42.9786 12.6991 42.2616 11.9282 41.9182 11.5375C41.4835 11.0434 41.0594 10.805 40.5244 10.7538C39.6143 10.6668 38.7681 10.2475 38.3695 9.68586C38.2117 9.4635 37.8962 9.28134 37.6683 9.28134C37.4407 9.28134 37.1933 9.18246 37.1185 9.06161C37.0438 8.94075 36.6474 8.84187 36.2379 8.84187C35.6514 8.84187 35.3737 8.9981 34.9324 9.57666C34.6241 9.98097 34.3719 10.3835 34.3719 10.4714C34.3719 10.5593 34.2214 10.7815 34.0377 10.9654C33.6428 11.3602 33.7129 13.037 34.1462 13.5591C34.2989 13.743 34.3732 14.0871 34.3112 14.3238C34.2493 14.5606 34.3334 14.9318 34.498 15.1491C34.6626 15.3662 34.8006 15.8098 34.8043 16.135C34.8083 16.4602 34.9102 16.7874 35.0311 16.8621C35.1519 16.9368 35.2508 17.2359 35.2508 17.5268C35.2508 17.8177 35.4158 18.4299 35.6176 18.8871C36.6015 21.1187 36.8415 21.5863 37.0032 21.5863C37.0997 21.5863 37.3427 21.9324 37.5433 22.3554C37.7439 22.7784 37.9858 23.1245 38.0808 23.1245C38.1757 23.1245 38.355 23.4554 38.4791 23.8599C38.6727 24.4908 38.6455 24.6325 38.2877 24.856C38.0583 24.9992 37.9228 25.2009 37.9865 25.304C38.0502 25.4073 37.9564 25.6129 37.7777 25.7613C37.5991 25.9096 37.5073 26.1185 37.5734 26.2255C37.6395 26.3328 37.3666 26.4229 36.9667 26.4257C35.7265 26.435 34.3334 26.8531 33.6624 27.4178C33.2583 27.7577 32.7454 27.9586 32.2805 27.9586C31.874 27.9586 31.4802 28.0575 31.4055 28.1783C31.3308 28.2992 31.0284 28.398 30.7333 28.398C30.4382 28.398 30.197 28.4949 30.197 28.6136C30.197 28.732 29.9489 28.8913 29.6457 28.9676C29.3424 29.0436 28.9256 29.3915 28.7195 29.7408C28.2961 30.4574 28.0801 30.5053 27.2394 30.0691C26.6044 29.7398 26.6316 29.6975 27.8898 29.0612C28.6749 28.6639 28.8237 28.0045 28.3446 27.0447C28.155 26.6641 27.9997 26.1407 27.9997 25.8812C27.9997 25.6219 27.8922 25.3022 27.7608 25.1708C27.5888 24.9988 27.5888 24.8907 27.7608 24.7843C28.0774 24.5885 28.0684 23.7837 27.7496 23.7837C27.612 23.7837 27.0704 23.3881 26.5459 22.9047C26.0214 22.4213 25.4914 22.0258 25.3677 22.0258C25.2442 22.0258 25.1431 21.801 25.1431 21.5264C25.1431 20.7801 23.9113 20.186 22.6914 20.344C20.89 20.5769 20.0851 20.7562 19.9645 20.9513C19.8979 21.059 19.6753 21.1469 19.4699 21.1469C18.8584 21.1469 17.892 22.1965 17.892 22.8608C17.892 23.2275 17.7157 23.5681 17.4358 23.743C17.0691 23.9722 17.0313 24.0902 17.2433 24.3455C17.4116 24.5486 17.4685 25.1196 17.4009 25.9265C17.3268 26.8114 17.4009 27.4198 17.6485 27.9586C18.1027 28.9474 19.1416 30.1063 19.7355 30.2867C20.2495 30.4429 20.9682 31.0133 20.9682 31.2649C20.9682 31.3541 19.9052 31.3761 18.6061 31.3137C16.7096 31.2227 16.1545 31.1192 15.7904 30.7881C15.5408 30.5613 15.2161 30.3757 15.0684 30.3757C14.921 30.3757 14.5613 30.2192 14.2695 30.0278C13.9774 29.8364 13.5606 29.7336 13.3433 29.7991C12.7041 29.9918 11.6905 28.9272 10.9627 27.2994C10.7737 26.8764 9.74429 25.6852 8.67507 24.6523L6.7311 22.774L6.65464 21.4437C6.60102 20.5156 6.67353 19.9981 6.8937 19.7327C7.28263 19.264 7.01631 18.7483 6.171 18.3332C5.4984 18.0032 5.46632 17.8746 5.90952 17.2886C6.7311 13.5067 7.17669 8.52955 8.13525 3.62617C8.52521 1.63143 8.11366 0.0653369 7.84031 0.418667Z" fill="#2041AD"/>
</svg>
