<svg width="18" height="19" viewBox="0 0 18 19" fill="none" xmlns="http://www.w3.org/2000/svg">
<path fill-rule="evenodd" clip-rule="evenodd" d="M13 0.713013H5C2.23858 0.713013 0 2.95159 0 5.71301V13.713C0 16.4744 2.23858 18.713 5 18.713H13C15.7614 18.713 18 16.4744 18 13.713V5.71301C18 2.95159 15.7614 0.713013 13 0.713013ZM16.25 13.713C16.2445 15.5056 14.7926 16.9575 13 16.963H5C3.20735 16.9575 1.75549 15.5056 1.75 13.713V5.71301C1.75549 3.92036 3.20735 2.4685 5 2.46301H13C14.7926 2.4685 16.2445 3.92036 16.25 5.71301V13.713ZM13.75 5.96301C14.3023 5.96301 14.75 5.51529 14.75 4.96301C14.75 4.41073 14.3023 3.96301 13.75 3.96301C13.1977 3.96301 12.75 4.41073 12.75 4.96301C12.75 5.51529 13.1977 5.96301 13.75 5.96301ZM9 5.21301C6.51472 5.21301 4.5 7.22773 4.5 9.71301C4.5 12.1983 6.51472 14.213 9 14.213C11.4853 14.213 13.5 12.1983 13.5 9.71301C13.5027 8.51871 13.0294 7.37258 12.1849 6.52809C11.3404 5.6836 10.1943 5.21035 9 5.21301ZM6.25 9.71301C6.25 11.2318 7.4812 12.463 9 12.463C10.5188 12.463 11.75 11.2318 11.75 9.71301C11.75 8.19421 10.5188 6.96301 9 6.96301C7.4812 6.96301 6.25 8.19421 6.25 9.71301Z" fill="#F7F8F8"/>
</svg>
